<?xml version="1.0" encoding="iso-8859-1"?>
<!-- Generator: Adobe Illustrator 19.0.0, SVG Export Plug-In . SVG Version: 6.00 Build 0)  -->
<svg version="1.1" id="Layer_1" xmlns="http://www.w3.org/2000/svg" xmlns:xlink="http://www.w3.org/1999/xlink" x="0px" y="0px"
	 viewBox="0 0 512 512" style="enable-background:new 0 0 512 512;" xml:space="preserve">
<g>
	<g>
		<path d="M348.16,92.16c-16.939,0-30.72,13.743-30.72,30.635v92.245h-30.72v-92.245c0-16.892-13.781-30.635-30.72-30.635
			c-16.939,0-30.72,13.743-30.72,30.635v92.245h-30.72v-92.245c0-16.892-13.781-30.635-30.72-30.635
			c-16.939,0-30.72,13.743-30.72,30.635v266.41c0,16.892,13.781,30.635,30.72,30.635c16.939,0,30.72-13.743,30.72-30.635V286.72
			h30.72v102.485c0,16.892,13.781,30.635,30.72,30.635c16.939,0,30.72-13.743,30.72-30.635V286.72h30.72v102.485
			c0,16.892,13.781,30.635,30.72,30.635c16.939,0,30.72-13.743,30.72-30.635v-266.41C378.88,105.903,365.099,92.16,348.16,92.16z
			 M358.4,389.205c0,5.695-4.497,10.155-10.24,10.155c-5.646,0-10.24-4.555-10.24-10.155V276.48c0-5.655-4.585-10.24-10.24-10.24
			h-51.2c-5.655,0-10.24,4.585-10.24,10.24v112.725c0,5.695-4.497,10.155-10.24,10.155c-5.646,0-10.24-4.555-10.24-10.155V276.48
			c0-5.655-4.585-10.24-10.24-10.24h-51.2c-5.655,0-10.24,4.585-10.24,10.24v112.725c0,5.695-4.497,10.155-10.24,10.155
			c-5.646,0-10.24-4.555-10.24-10.155v-266.41c0-5.695,4.497-10.155,10.24-10.155c5.646,0,10.24,4.555,10.24,10.155V225.28
			c0,5.655,4.585,10.24,10.24,10.24h51.2c5.655,0,10.24-4.585,10.24-10.24V122.795c0-5.695,4.497-10.155,10.24-10.155
			c5.646,0,10.24,4.555,10.24,10.155V225.28c0,5.655,4.585,10.24,10.24,10.24h51.2c5.655,0,10.24-4.585,10.24-10.24V122.795
			c0-5.695,4.497-10.155,10.24-10.155c5.646,0,10.24,4.555,10.24,10.155V389.205z"/>
	</g>
</g>
<g>
	<g>
		<path d="M460.699,0H51.301C23.014,0,0,23.014,0,51.301V460.7C0,488.987,23.014,512,51.301,512h409.397
			C488.986,512,512,488.987,512,460.7V51.301C512,23.014,488.986,0,460.699,0z M491.52,460.7c0,16.995-13.826,30.82-30.821,30.82
			H51.301c-16.995,0-30.821-13.825-30.821-30.82V51.301c0-16.995,13.826-30.821,30.821-30.821h409.397
			c16.995,0,30.821,13.826,30.821,30.821V460.7z"/>
	</g>
</g>
<g>
</g>
<g>
</g>
<g>
</g>
<g>
</g>
<g>
</g>
<g>
</g>
<g>
</g>
<g>
</g>
<g>
</g>
<g>
</g>
<g>
</g>
<g>
</g>
<g>
</g>
<g>
</g>
<g>
</g>
</svg>
