<?xml version="1.0" encoding="iso-8859-1"?>
<!-- Generator: Adobe Illustrator 19.0.0, SVG Export Plug-In . SVG Version: 6.00 Build 0)  -->
<svg version="1.1" id="Layer_1" xmlns="http://www.w3.org/2000/svg" xmlns:xlink="http://www.w3.org/1999/xlink" x="0px" y="0px"
	 viewBox="0 0 512 512" style="enable-background:new 0 0 512 512;" xml:space="preserve">
<g>
	<g>
		<path d="M484.013,334.668c-25.493-25.492-63.013-34.355-97.01-23.333l-72.554-72.555l85.93-85.93l54.653-30.557
			c1.52-0.85,2.749-2.138,3.529-3.695l24.559-49.117c1.671-3.343,1.017-7.38-1.626-10.024l-30.7-30.7
			c-2.643-2.643-6.683-3.297-10.024-1.626l-49.117,24.558c-1.557,0.779-2.845,2.009-3.695,3.529l-30.557,54.654l-85.93,85.93
			l-69.003-69.001c11.02-33.996,2.159-71.518-23.334-97.011C152.277,2.935,112.073-5.467,76.701,8.396
			c-2.727,1.068-4.733,3.441-5.331,6.309c-0.599,2.867,0.288,5.843,2.359,7.916l55.236,55.234l-36.839,36.839L36.891,59.457
			c-2.072-2.07-5.045-2.953-7.916-2.359c-2.868,0.599-5.24,2.604-6.309,5.331c-13.861,35.368-5.463,75.576,21.394,102.435
			c25.492,25.492,63.012,34.354,97.01,23.333l69.001,69.002l-9.954,9.954l-24.559-24.559c-2.13-2.127-5.204-2.996-8.135-2.311
			c-2.928,0.691-5.291,2.85-6.243,5.706l-11.267,33.804L60.96,333.508c-0.783,0.474-1.487,1.067-2.085,1.76l-45.757,53.024
			c-18.524,21.467-17.278,55.245,2.777,75.3l30.762,30.763c10.52,10.52,24.816,15.843,39.136,15.843
			c12.99,0,26.001-4.382,36.223-13.243l54.064-46.865c0.692-0.6,1.286-1.306,1.756-2.091l52.633-87.667l33.792-11.264
			c2.854-0.952,5.013-3.314,5.704-6.243s-0.183-6.007-2.311-8.135l-24.558-24.558l9.954-9.954l72.554,72.553
			c-11.021,33.996-2.159,71.518,23.334,97.011c18.26,18.26,42.693,27.987,67.58,27.987c11.715-0.001,23.533-2.157,34.854-6.593
			c2.727-1.068,4.733-3.441,5.331-6.309c0.599-2.867-0.288-5.843-2.359-7.916l-55.237-55.236l36.84-36.837l55.233,55.234
			c2.072,2.071,5.051,2.958,7.916,2.359c2.868-0.599,5.24-2.604,6.309-5.332C519.268,401.734,510.87,361.526,484.013,334.668z
			 M149.467,172.034c-2.44-2.44-6.092-3.201-9.308-1.944c-28.94,11.341-61.843,4.47-83.818-17.505
			c-18.665-18.666-26.434-45.212-21.402-70.521l51.047,51.048c3.393,3.391,8.89,3.388,12.28,0l49.118-49.118
			c3.391-3.392,3.391-8.888,0-12.28L96.336,20.667c25.306-5.034,51.853,2.736,70.52,21.403
			c21.975,21.975,28.847,54.875,17.506,83.818c-1.259,3.214-0.496,6.867,1.944,9.308l72.886,72.885l-36.837,36.837L149.467,172.034z
			 M245.442,337.035l-23.51,7.836c-1.965,0.656-3.631,1.992-4.698,3.768l-53.574,89.235l-53.019,45.959
			c-14.751,12.79-37.946,12.001-51.704-1.759l-30.763-30.763c-13.763-13.763-14.621-36.944-1.909-51.674l44.854-51.977
			l90.511-54.654c1.767-1.067,3.096-2.729,3.749-4.688l7.836-23.51l20.765,20.765l30.698,30.698L245.442,337.035z M230.818,297.853
			l-18.419-18.419l158.134-158.133c0.565-0.565,1.048-1.205,1.438-1.903l29.84-53.371l41.128-20.563l21.849,21.848l-20.565,41.129
			l-53.37,29.84c-0.698,0.39-1.338,0.873-1.903,1.438L230.818,297.853z M493.136,417.467l-51.046-51.047
			c-3.39-3.388-8.887-3.39-12.279,0l-49.119,49.117c-1.629,1.629-2.544,3.837-2.544,6.14c0,2.303,0.915,4.511,2.543,6.14
			l51.048,51.048c-25.306,5.025-51.856-2.739-70.52-21.403c-21.975-21.975-28.847-54.876-17.506-83.818
			c1.259-3.214,0.496-6.867-1.944-9.308l-76.438-76.438l36.837-36.838l76.438,76.438c2.442,2.44,6.098,3.203,9.308,1.944
			c28.944-11.337,61.844-4.469,83.818,17.505C490.4,365.613,498.168,392.159,493.136,417.467z"/>
	</g>
</g>
<g>
</g>
<g>
</g>
<g>
</g>
<g>
</g>
<g>
</g>
<g>
</g>
<g>
</g>
<g>
</g>
<g>
</g>
<g>
</g>
<g>
</g>
<g>
</g>
<g>
</g>
<g>
</g>
<g>
</g>
</svg>
