<?xml version="1.0" encoding="iso-8859-1"?>
<!-- Generator: Adobe Illustrator 19.0.0, SVG Export Plug-In . SVG Version: 6.00 Build 0)  -->
<svg version="1.1" id="Layer_1" xmlns="http://www.w3.org/2000/svg" xmlns:xlink="http://www.w3.org/1999/xlink" x="0px" y="0px"
	 viewBox="0 0 512 512" style="enable-background:new 0 0 512 512;" xml:space="preserve">
<g>
	<g>
		<path d="M256,0C114.842,0,0,114.842,0,256s114.842,256,256,256s256-114.842,256-256S397.158,0,256,0z M256,494.345
			C124.576,494.345,17.655,387.424,17.655,256S124.576,17.655,256,17.655S494.345,124.576,494.345,256S387.424,494.345,256,494.345z
			"/>
	</g>
</g>
<g>
	<g>
		<path d="M256,52.966C144.046,52.966,52.966,144.046,52.966,256c0,65.632,31.312,124.079,79.772,161.219
			c0.583,2.135,1.954,4.057,4.009,5.274c1.551,0.918,3.267,1.299,4.939,1.213c32.582,22.279,71.95,35.329,114.314,35.329
			c42.375,0,81.754-13.057,114.342-35.348c0.198,0.013,0.395,0.038,0.594,0.038c1.528,0,3.076-0.398,4.486-1.232
			c2.111-1.249,3.508-3.24,4.062-5.444c48.334-37.148,79.55-95.517,79.55-161.048C459.034,144.046,367.954,52.966,256,52.966z
			 M256,70.621c61.218,0,115.576,29.845,149.354,75.729c-29.509-5.26-87.542-13.936-149.354-13.936s-119.845,8.677-149.354,13.936
			C140.424,100.465,194.782,70.621,256,70.621z M70.621,256c0-5.837,0.305-11.602,0.835-17.302
			c16.941,3.682,54.684,16.465,60.858,39.818c4.599,17.399-8.92,40.27-39.033,66.213C78.844,318.359,70.621,288.124,70.621,256z
			 M256,441.379c-37.551,0-72.507-11.255-101.736-30.523c15.15-22.946,59.576-84.236,101.821-84.236
			c42.197,0,86.571,61.154,101.769,84.16C328.602,430.095,293.601,441.379,256,441.379z M372.154,400.329
			c-17.021-25.755-65.36-91.364-116.069-91.364c-50.767,0-99.158,65.758-116.128,91.451c-14.349-11.553-26.965-25.171-37.346-40.437
			c0.063-0.051,0.133-0.085,0.195-0.137c37.561-31.784,53.232-60.664,46.577-85.839c-4.592-17.367-19.251-31.643-43.571-42.431
			c-14.122-6.264-27.293-9.402-31.866-10.384c3.693-19.354,10.381-37.653,19.601-54.381c15.849-3.253,86.164-16.738,162.453-16.738
			c76.212,0,146.593,13.487,162.453,16.739c9.248,16.776,15.945,35.134,19.631,54.55c-5.151,1.142-17.687,4.267-31.094,10.214
			c-24.32,10.788-38.98,25.063-43.571,42.431c-6.636,25.103,8.931,53.892,46.26,85.568
			C399.271,374.965,386.587,388.691,372.154,400.329z M380.483,278.539c6.039-22.922,42.754-35.726,60.075-39.664
			c0.52,5.643,0.822,11.349,0.822,17.125c0,31.933-8.116,62.005-22.393,88.264C389.265,318.524,375.927,295.83,380.483,278.539z"/>
	</g>
</g>
<g>
	<g>
		<path d="M256,185.379c-29.206,0-52.966,23.76-52.966,52.966c0,29.206,23.76,52.966,52.966,52.966s52.966-23.76,52.966-52.966
			C308.966,209.139,285.206,185.379,256,185.379z M256,273.655c-19.47,0-35.31-15.84-35.31-35.31c0-19.47,15.84-35.31,35.31-35.31
			s35.31,15.84,35.31,35.31C291.31,257.815,275.47,273.655,256,273.655z"/>
	</g>
</g>
<g>
</g>
<g>
</g>
<g>
</g>
<g>
</g>
<g>
</g>
<g>
</g>
<g>
</g>
<g>
</g>
<g>
</g>
<g>
</g>
<g>
</g>
<g>
</g>
<g>
</g>
<g>
</g>
<g>
</g>
</svg>
