<?xml version="1.0" encoding="iso-8859-1"?>
<!-- Generator: Adobe Illustrator 19.0.0, SVG Export Plug-In . SVG Version: 6.00 Build 0)  -->
<svg version="1.1" id="Layer_1" xmlns="http://www.w3.org/2000/svg" xmlns:xlink="http://www.w3.org/1999/xlink" x="0px" y="0px"
	 viewBox="0 0 512 512" style="enable-background:new 0 0 512 512;" xml:space="preserve">
<g>
	<g>
		<path d="M503.322,65.085H238.644c-1.813,0-3.583,0.569-5.057,1.625L3.621,231.591C1.347,233.221,0,235.846,0,238.644v199.593
			c0,4.792,3.886,8.678,8.678,8.678h494.644c4.792,0,8.678-3.886,8.678-8.678V73.763C512,68.97,508.114,65.085,503.322,65.085z
			 M494.644,429.559H17.356V243.101l224.078-160.66h253.21V429.559z"/>
	</g>
</g>
<g>
	<g>
		<path d="M468.61,99.797H251.661c-1.877,0-3.706,0.609-5.208,1.735L72.894,231.701c-2.987,2.242-4.206,6.143-3.025,9.687
			c1.182,3.543,4.498,5.933,8.233,5.933H468.61c4.792,0,8.678-3.886,8.678-8.678V108.475
			C477.288,103.682,473.403,99.797,468.61,99.797z M459.932,229.966H104.136l150.417-112.814h205.379V229.966z"/>
	</g>
</g>
<g>
	<g>
		<path d="M459.932,299.39h-60.746c-4.792,0-8.678,3.886-8.678,8.678v52.068c0,4.792,3.886,8.678,8.678,8.678
			c4.792,0,8.678-3.886,8.678-8.678v-43.39h52.068c4.792,0,8.678-3.886,8.678-8.678S464.725,299.39,459.932,299.39z"/>
	</g>
</g>
<g>
</g>
<g>
</g>
<g>
</g>
<g>
</g>
<g>
</g>
<g>
</g>
<g>
</g>
<g>
</g>
<g>
</g>
<g>
</g>
<g>
</g>
<g>
</g>
<g>
</g>
<g>
</g>
<g>
</g>
</svg>
