<?xml version="1.0" encoding="iso-8859-1"?>
<!-- Generator: Adobe Illustrator 19.0.0, SVG Export Plug-In . SVG Version: 6.00 Build 0)  -->
<svg version="1.1" id="Layer_1" xmlns="http://www.w3.org/2000/svg" xmlns:xlink="http://www.w3.org/1999/xlink" x="0px" y="0px"
	 viewBox="0 0 512 512" style="enable-background:new 0 0 512 512;" xml:space="preserve">
<g>
	<g>
		<path d="M499.464,424.504L374.343,299.382c8.57-14.583,6.591-33.722-5.925-46.241l-26.817-26.814c-3.712-3.71-9.73-3.71-13.437,0
			l-37.553,37.553l-10.605-21.207l69.873-131.981c9.333-17.631,5.637-42.452-8.419-56.509L304.547,17.27
			c-1.782-1.782-4.199-2.783-6.719-2.783s-4.937,1.001-6.719,2.783l-25.195,25.195l-1.657-1.656
			c-8.974-8.975-20.901-13.926-33.581-13.941c-0.021,0-0.037,0-0.058,0c-12.667,0-24.571,4.928-33.519,13.878L13.857,223.988
			C4.916,232.927-0.005,244.841,0,257.536c0.005,12.705,4.948,24.643,13.92,33.613l20.126,20.128
			c9.278,9.278,21.462,13.917,33.64,13.917c12.145,0,24.283-4.618,33.521-13.855l183.243-183.242
			c8.941-8.94,13.862-20.854,13.857-33.549c-0.005-12.705-4.948-24.643-13.92-33.614l-5.033-5.033l18.474-18.474l30.195,30.194
			c8.064,8.067,10.428,24.037,5.06,34.178l-72.16,136.303c-1.436,2.712-1.473,5.951-0.102,8.696l15.624,31.248l-42.35,42.35
			c-3.712,3.711-3.712,9.728,0,13.438l26.814,26.818c14.848,14.845,38.985,14.873,53.819,0.06l124.265,124.266
			c8.357,8.355,19.33,12.535,30.299,12.534c10.948,0,21.891-4.163,30.218-12.491C516.182,468.349,516.161,441.2,499.464,424.504z
			 M271.012,114.659L87.769,297.9c-11.09,11.092-29.16,11.058-40.286-0.062l-20.126-20.127v-0.001
			c-5.382-5.382-8.347-12.55-8.352-20.181c-0.002-7.615,2.942-14.754,8.289-20.101L210.54,54.184
			c5.359-5.36,12.488-8.311,20.082-8.311c0.009,0,0.021,0,0.033,0c7.614,0.009,14.776,2.984,20.168,8.375l20.128,20.126
			c5.382,5.383,8.347,12.551,8.352,20.184C279.303,102.173,276.36,109.311,271.012,114.659z M486.071,471.583
			c-9.264,9.265-24.355,9.24-33.642-0.043L321.446,340.555c-1.782-1.782-4.199-2.783-6.719-2.783c-2.519,0-4.937,1.001-6.719,2.783
			l-6.698,6.698c-7.422,7.423-19.516,7.407-26.965-0.038l-20.096-20.098l37.907-37.907c0.138-0.061,0.282-0.083,0.419-0.151
			c2.054-1.027,3.534-2.716,4.396-4.664l37.911-37.91l20.096,20.094c7.436,7.437,7.461,19.526,0.056,26.949
			c-3.703,3.713-3.7,9.723,0.009,13.431l130.983,130.983C495.314,447.23,495.332,462.32,486.071,471.583z"/>
	</g>
</g>
<g>
</g>
<g>
</g>
<g>
</g>
<g>
</g>
<g>
</g>
<g>
</g>
<g>
</g>
<g>
</g>
<g>
</g>
<g>
</g>
<g>
</g>
<g>
</g>
<g>
</g>
<g>
</g>
<g>
</g>
</svg>
