<?xml version="1.0" encoding="iso-8859-1"?>
<!-- Generator: Adobe Illustrator 18.0.0, SVG Export Plug-In . SVG Version: 6.00 Build 0)  -->
<!DOCTYPE svg PUBLIC "-//W3C//DTD SVG 1.1//EN" "http://www.w3.org/Graphics/SVG/1.1/DTD/svg11.dtd">
<svg version="1.1" id="Capa_1" xmlns="http://www.w3.org/2000/svg" xmlns:xlink="http://www.w3.org/1999/xlink" x="0px" y="0px"
	 viewBox="0 0 490 490" style="enable-background:new 0 0 490 490;" xml:space="preserve">
<g>
	<path d="M433.646,196.908c-32.156-50.697-88.41-81.862-148.732-81.862c-37.846,0-74.083,12.276-103.78,33.937
		c-5.963-4.044-13.152-6.411-20.884-6.411h-55.681c-5.522,0-10,4.478-10,10s4.478,10,10,10h55.681c1.357,0,2.671,0.173,3.938,0.47
		c-10.444,9.825-19.759,20.972-27.64,33.29l-49.18,0.002C39.193,196.335,0,235.528,0,283.703c0,28.202,22.943,51.146,51.145,51.146
		h24.042c3.907,22.742,23.756,40.105,47.595,40.105s43.688-17.364,47.595-40.105h149.247c3.907,22.742,23.756,40.105,47.595,40.105
		s43.688-17.364,47.595-40.105h24.042c28.201,0,51.145-22.943,51.145-51.146v-22.367C490,228.426,465.413,201.15,433.646,196.908z
		 M385.524,326.648c0,10.094-8.212,18.306-18.306,18.306s-18.306-8.212-18.306-18.306s8.212-18.306,18.306-18.306
		S385.524,316.555,385.524,326.648z M141.087,326.648c0,10.094-8.212,18.306-18.306,18.306s-18.306-8.212-18.306-18.306
		s8.212-18.306,18.306-18.306S141.087,316.555,141.087,326.648z M367.219,278.343c-18.794,0-35.104,10.796-43.086,26.506H165.867
		c-7.981-15.71-24.291-26.506-43.086-26.506s-35.104,10.796-43.086,26.506H51.145c-11.659,0-21.145-9.486-21.145-21.146
		c0-31.633,25.735-57.368,57.369-57.369l57.632-0.002c5.384,0,10.355-2.887,13.025-7.563c5.914-10.358,13.014-19.81,21.055-28.25
		c1.746,5.909,4.946,11.323,9.426,15.8c7.063,7.058,16.447,10.942,26.43,10.942c0.01,0,0.021,0,0.03,0l81.302-0.063l-16.04,16.04
		c-3.905,3.905-3.905,10.237,0,14.143c1.953,1.952,4.512,2.929,7.071,2.929s5.118-0.977,7.071-2.929l33.048-33.048
		c3.905-3.905,3.905-10.237,0-14.143l-33.048-33.048c-3.906-3.904-10.236-3.904-14.143,0c-3.905,3.905-3.905,10.237,0,14.143
		l15.914,15.914l-81.192,0.063c-0.005,0-0.009,0-0.014,0c-4.643,0-9.009-1.808-12.293-5.09c-3.289-3.285-5.1-7.655-5.1-12.304
		c0-1.84-0.139-3.647-0.398-5.417c24.944-18.744,55.656-29.406,87.766-29.406c52.304,0,100.925,28.251,126.889,73.728
		c2.67,4.676,7.642,7.563,13.026,7.563H425c19.299,0,35,15.701,35,35v22.367c0,11.659-9.485,21.146-21.145,21.146h-28.551
		C402.323,289.139,386.013,278.343,367.219,278.343z"/>
</g>
<g>
</g>
<g>
</g>
<g>
</g>
<g>
</g>
<g>
</g>
<g>
</g>
<g>
</g>
<g>
</g>
<g>
</g>
<g>
</g>
<g>
</g>
<g>
</g>
<g>
</g>
<g>
</g>
<g>
</g>
</svg>
