<svg height="480pt" viewBox="0 0 480 480" width="480pt" xmlns="http://www.w3.org/2000/svg"><path d="m456 304h-11.40625l-30.53125-52.335938c-15.8125-26.992187-44.730469-43.605468-76.015625-43.664062h-100.070313c-21.375-.027344-41.648437 9.46875-55.3125 25.902344l-58.808593 70.578125-61.367188 8.183593c-35.707031 4.859376-62.371093 35.296876-62.488281 71.335938v40c0 4.417969 3.582031 8 8 8h40.640625c3.953125 27.535156 27.542969 47.976562 55.359375 47.976562s51.40625-20.441406 55.359375-47.976562h161.28125c3.953125 27.535156 27.542969 47.976562 55.359375 47.976562s51.40625-20.441406 55.359375-47.976562h40.640625c4.417969 0 8-3.582031 8-8v-96c0-13.253906-10.746094-24-24-24zm-55.761719-44.28125 25.832031 44.28125h-114.070312v-80h26.046875c25.597656.046875 49.253906 13.636719 62.191406 35.71875zm-120.238281 44.28125v-80h16v80zm-85.046875-59.847656c10.628906-12.785156 26.398437-20.171875 43.023437-20.152344h26.023438v80h-118.921875zm-178.953125 155.847656h16.054688c4.417968-.015625 7.988281-3.609375 7.972656-8.027344-.015625-4.417968-3.609375-7.988281-8.027344-7.972656h-.054688l-15.945312.113281v-.113281c.078125-28.039062 20.816406-51.726562 48.601562-55.511719l63.925782-8.488281h151.472656v96h-120.566406c-.089844-.617188-.242188-1.207031-.355469-1.816406-.132813-.800782-.261719-1.527344-.429687-2.28125-.222657-1.007813-.496094-2-.800782-2.980469-.199218-.714844-.382812-1.433594-.617187-2.128906-.328125-1.023438-.71875-2.023438-1.101563-3.023438-.25-.632812-.464844-1.273437-.738281-1.890625-.480469-1.117187-1.023437-2.199218-1.597656-3.277344-.242188-.464843-.449219-.953124-.695313-1.410156-.800781-1.503906-1.722656-2.976562-2.683594-4.398437-.238281-.351563-.511718-.679688-.796874-1.023438-.746094-1.066406-1.503907-2.113281-2.320313-3.113281-.417969-.503906-.863281-.976562-1.296875-1.464844-.703125-.800781-1.40625-1.597656-2.152344-2.398437-.496094-.511719-1.023437-.992188-1.542968-1.480469-.738282-.6875-1.472657-1.375-2.242188-2.03125-.558594-.480469-1.140625-.929688-1.726562-1.386719-.800782-.605469-1.558594-1.199219-2.398438-1.765625-.617188-.433594-1.242188-.847656-1.882812-1.257812-.796876-.527344-1.65625-1.03125-2.503907-1.519532-.65625-.375-1.328125-.742187-2-1.09375-.871093-.449218-1.765625-.875-2.664062-1.28125-.6875-.3125-1.375-.625-2.070313-.90625-.945312-.382812-1.90625-.71875-2.863281-1.054687-.707031-.230469-1.394531-.488281-2.105469-.695313-1.023437-.304687-2.0625-.550781-3.105468-.800781-.6875-.160156-1.359376-.34375-2.054688-.480469-1.167969-.230468-2.398438-.390624-3.558594-.542968-.59375-.082032-1.175781-.191406-1.777344-.25-1.671874-.140625-3.503906-.246094-5.351562-.246094s-3.679688.105469-5.480469.28125c-.597656.054688-1.183593.167969-1.777343.246094-1.199219.152344-2.398438.3125-3.558594.542968-.695313.136719-1.367188.320313-2.054688.480469-1.039062.25-2.082031.496094-3.105468.800781-.710938.207032-1.398438.464844-2.101563.695313-.960937.335937-1.921875.671875-2.867187 1.058594-.695313.277343-1.382813.589843-2.070313.902343-.894531.40625-1.792969.800782-2.664063 1.28125-.671874.351563-1.34375.71875-2 1.09375-.847656.488282-1.6875.992188-2.503906 1.519532-.640625.410156-1.265625.800781-1.878906 1.257812-.800781.566406-1.601562 1.160156-2.402344 1.769532-.582031.453124-1.167968.902343-1.726562 1.382812-.800782.65625-1.503906 1.34375-2.242188 2.03125-.519531.488281-1.046875.96875-1.542968 1.480469-.742188.761719-1.449219 1.601562-2.152344 2.398437-.429688.488282-.878906.960938-1.296875 1.464844-.796875 1-1.597657 2.046875-2.316407 3.113281-.25.34375-.523437.671875-.761718 1.023438-.960938 1.421875-1.847656 2.894531-2.679688 4.398437-.25.457032-.457031.945313-.695312 1.410156-.554688 1.078126-1.097656 2.160157-1.601563 3.277344-.273437.617188-.488281 1.257813-.734375 1.890625-.386718 1-.800781 2-1.105468 3.023438-.230469.695312-.414063 1.414062-.617188 2.128906-.269531.984375-.542969 1.976563-.796875 2.984375-.167969.75-.296875 1.519531-.433594 2.277344-.113281.609375-.265625 1.199218-.351562 1.816406h-32.480469zm88 64c-22.089844 0-40-17.910156-40-40s17.910156-40 40-40 40 17.910156 40 40c-.027344 22.082031-17.917969 39.972656-40 40zm272 0c-22.089844 0-40-17.910156-40-40s17.910156-40 40-40 40 17.910156 40 40c-.027344 22.082031-17.917969 39.972656-40 40zm55.433594-48c-.089844-.617188-.242188-1.207031-.355469-1.816406-.132813-.800782-.261719-1.527344-.429687-2.28125-.222657-1.007813-.496094-2-.800782-2.980469-.199218-.714844-.382812-1.433594-.617187-2.128906-.328125-1.023438-.71875-2.023438-1.101563-3.023438-.25-.632812-.464844-1.273437-.738281-1.890625-.480469-1.117187-1.023437-2.199218-1.597656-3.277344-.242188-.464843-.449219-.953124-.695313-1.410156-.800781-1.503906-1.722656-2.976562-2.683594-4.398437-.238281-.351563-.511718-.679688-.757812-1.023438-.746094-1.066406-1.503906-2.113281-2.320312-3.113281-.414063-.503906-.863282-.976562-1.296876-1.464844-.703124-.800781-1.40625-1.597656-2.152343-2.398437-.496094-.511719-1.023438-.992188-1.542969-1.480469-.734375-.6875-1.472656-1.375-2.238281-2.03125-.5625-.480469-1.144531-.929688-1.730469-1.386719-.800781-.605469-1.597656-1.199219-2.398438-1.765625-.617187-.433594-1.242187-.847656-1.878906-1.257812-.800781-.527344-1.65625-1.03125-2.503906-1.519532-.65625-.375-1.328125-.742187-2-1.09375-.875-.449218-1.769531-.875-2.664062-1.28125-.691407-.3125-1.378907-.625-2.074219-.90625-.945313-.382812-1.902344-.71875-2.863281-1.054687-.703126-.230469-1.390626-.488281-2.105469-.695313-1.023438-.304687-2.0625-.550781-3.101563-.800781-.6875-.160156-1.359375-.34375-2.058594-.480469-1.167968-.230468-2.359374-.390624-3.558593-.542968-.59375-.082032-1.175781-.191406-1.777344-.25-1.710937-.140625-3.542969-.246094-5.390625-.246094s-3.679688.105469-5.480469.28125c-.597656.054688-1.183593.167969-1.777343.246094-1.199219.152344-2.398438.3125-3.558594.542968-.695313.136719-1.367188.320313-2.054688.480469-1.039062.25-2.082031.496094-3.105468.800781-.710938.207032-1.398438.464844-2.101563.695313-.960937.335937-1.921875.671875-2.867187 1.058594-.695313.277343-1.382813.589843-2.070313.902343-.894531.40625-1.792969.800782-2.664063 1.28125-.671874.351563-1.34375.71875-2 1.09375-.847656.488282-1.6875.992188-2.503906 1.519532-.640625.410156-1.265625.800781-1.878906 1.257812-.800781.566406-1.601562 1.160156-2.402344 1.769532-.582031.453124-1.167968.902343-1.726562 1.382812-.800782.65625-1.503906 1.34375-2.242188 2.03125-.519531.488281-1.046875.96875-1.542968 1.480469-.742188.761719-1.449219 1.601562-2.152344 2.398437-.429688.488282-.878906.960938-1.296875 1.464844-.796875 1-1.597657 2.046875-2.316407 3.113281-.25.34375-.523437.671875-.761718 1.023438-.960938 1.421875-1.847656 2.894531-2.679688 4.398437-.25.457032-.457031.945313-.695312 1.410156-.554688 1.078126-1.097656 2.160157-1.601563 3.277344-.273437.617188-.488281 1.257813-.734375 1.890625-.386718 1-.800781 2-1.105468 3.023438-.230469.695312-.414063 1.414062-.617188 2.128906-.269531.984375-.542969 1.976563-.796875 2.984375-.167969.75-.296875 1.519531-.433594 2.277344-.113281.609375-.265625 1.199218-.351562 1.816406h-24.480469v-96.03125h160c4.417969 0 8 3.582031 8 8v56h-16.359375c-4.417969.097656-7.921875 3.761719-7.820313 8.179688.097657 4.417968 3.761719 7.917968 8.179688 7.820312h16v16zm0 0"/><path d="m104 400c-13.253906 0-24 10.746094-24 24s10.746094 24 24 24 24-10.746094 24-24-10.746094-24-24-24zm0 32c-4.417969 0-8-3.582031-8-8s3.582031-8 8-8 8 3.582031 8 8-3.582031 8-8 8zm0 0"/><path d="m376 400c-13.253906 0-24 10.746094-24 24s10.746094 24 24 24 24-10.746094 24-24-10.746094-24-24-24zm0 32c-4.417969 0-8-3.582031-8-8s3.582031-8 8-8 8 3.582031 8 8-3.582031 8-8 8zm0 0"/><path d="m232 344h16c4.417969 0 8-3.582031 8-8s-3.582031-8-8-8h-16c-4.417969 0-8 3.582031-8 8s3.582031 8 8 8zm0 0"/><path d="m328 328h-16c-4.417969 0-8 3.582031-8 8s3.582031 8 8 8h16c4.417969 0 8-3.582031 8-8s-3.582031-8-8-8zm0 0"/><path d="m160 96h88c4.417969 0 8 3.582031 8 8v88h64v-104c-.035156-30.914062-25.085938-55.964844-56-56h-104v-32l-85.335938 64 85.335938 64zm-16 0-42.664062-32 42.664062-32v16h120c22.082031.027344 39.972656 17.917969 40 40v88h-32v-72c0-13.253906-10.746094-24-24-24h-104zm0 0"/></svg>