<?xml version="1.0" encoding="iso-8859-1"?>
<!-- Generator: Adobe Illustrator 19.0.0, SVG Export Plug-In . SVG Version: 6.00 Build 0)  -->
<svg version="1.1" id="Layer_1" xmlns="http://www.w3.org/2000/svg" xmlns:xlink="http://www.w3.org/1999/xlink" x="0px" y="0px"
	 viewBox="0 0 510.72 510.72" style="enable-background:new 0 0 510.72 510.72;" xml:space="preserve">
<g transform="translate(1 1)">
	<g>
		<g>
			<path d="M343.107,83.907C303,71.96,203.16,71.96,167.32,83.907c-4.267,0.853-5.973,4.267-5.973,8.533l8.533,93.867
				c0,2.56,1.707,4.267,3.413,5.973s4.267,2.56,6.827,1.707c43.52-11.093,104.96-11.093,149.333,0c0,0,0.853,0,1.707,0
				c1.707,0,3.413-0.853,5.973-1.707c1.707-0.853,3.413-3.413,3.413-5.973l8.533-93.867
				C349.933,89.027,347.373,84.76,343.107,83.907z M323.48,175.213c-21.333-4.267-45.227-6.827-69.12-6.827
				s-48.64,2.56-69.973,6.827l-6.827-76.8c35.84-8.533,114.347-8.533,152.747,0L323.48,175.213z"/>
			<path d="M322.627,364.653H186.093c-14.507,0-25.6,11.093-25.6,25.6v59.733c0,4.267,2.56,7.68,6.827,8.533
				c29.013,5.973,58.027,8.533,87.04,8.533c29.013,0,58.027-2.56,87.04-8.533c4.267-0.853,6.827-4.267,6.827-8.533v-59.733
				C348.227,375.747,337.133,364.653,322.627,364.653z M331.16,443.16c-51.2,9.387-102.4,9.387-153.6,0v-52.907
				c0-5.12,3.413-8.533,8.533-8.533h136.533c5.12,0,8.533,3.413,8.533,8.533V443.16z"/>
			<path d="M463.427,294.68c0.853,0.853,2.56,1.707,4.267,1.707c1.707,0,2.56,0,4.267-1.707c2.56-1.707,4.267-4.267,4.267-7.68
				v-42.667c0-2.56-1.707-5.12-4.267-6.827l-89.6-57.018V90.733c0-23.04-2.56-42.667-8.533-67.413
				c-0.853-3.413-3.413-5.973-6.827-5.973L313.24,5.4c-39.253-8.533-80.213-8.533-118.613,0l-53.76,11.947
				c-2.56,0.853-5.12,2.56-5.973,5.973c-5.973,24.747-8.533,44.373-8.533,67.413v82.075l-89.6,57.018
				c-2.56,0.853-4.267,4.267-4.267,6.827v42.667c0,3.413,1.707,5.973,4.267,7.68c1.707,0.853,2.56,0.853,4.267,0.853
				S44.44,287,45.293,287l81.067-51.588v73.93l-89.6,57.018c-2.56,0.853-4.267,4.267-4.267,6.827v42.667
				c0,3.413,1.707,5.973,4.267,7.68c1.707,0.853,2.56,0.853,4.267,0.853s3.413-0.853,4.267-0.853l81.067-51.588V484.12
				c0,14.507,11.093,25.6,25.6,25.6h204.8c14.507,0,25.6-11.093,25.6-25.6V371.092l81.067,51.588
				c0.853,0.853,2.56,1.707,4.267,1.707c1.707,0,2.56,0,4.267-1.707c2.56-1.707,4.267-4.267,4.267-7.68v-42.667
				c0-2.56-1.707-5.12-4.267-6.827l-89.6-57.018v-65.396L463.427,294.68z M459.16,250.307v22.187l-76.8-48.64v-22.187
				L459.16,250.307z M49.56,263.107V240.92l76.8-48.64v22.187L49.56,263.107z M49.56,399.64v-22.187l76.8-48.64V351L49.56,399.64z
				 M365.293,484.12c0,5.12-3.413,8.533-8.533,8.533h-204.8c-5.12,0-8.533-3.413-8.533-8.533V356.973v-42.667V220.44v-42.667v-87.04
				c0-20.48,1.707-37.547,6.827-58.027l48.64-11.093c36.693-8.533,75.093-8.533,110.933,0l48.64,11.093
				c5.12,20.48,6.827,38.4,6.827,58.027v94.72v42.667v85.333v42.667V484.12z M459.16,378.307v22.187l-76.8-48.64v-22.187
				L459.16,378.307z"/>
			<path d="M343.107,220.44c-2.56-1.707-5.973-0.853-8.533,0.853l-34.133,25.6c-2.56,1.707-3.413,4.267-3.413,6.827v76.8
				c0,5.12,3.413,8.533,8.533,8.533h34.133c5.12,0,8.533-3.413,8.533-8.533v-102.4C348.227,224.707,345.667,222.147,343.107,220.44z
				 M331.16,321.987h-17.067v-64l17.067-12.8V321.987z"/>
			<path d="M169.027,339.053h34.133c5.12,0,8.533-3.413,8.533-8.533v-76.8c0-2.56-0.853-5.12-3.413-6.827l-34.133-25.6
				c-2.56-1.707-5.973-2.56-8.533-0.853c-3.413,1.707-5.12,4.267-5.12,7.68v102.4C160.493,335.64,163.907,339.053,169.027,339.053z
				 M177.56,245.187l17.067,12.8v64H177.56V245.187z"/>
		</g>
	</g>
</g>
<g>
</g>
<g>
</g>
<g>
</g>
<g>
</g>
<g>
</g>
<g>
</g>
<g>
</g>
<g>
</g>
<g>
</g>
<g>
</g>
<g>
</g>
<g>
</g>
<g>
</g>
<g>
</g>
<g>
</g>
</svg>
