<svg xmlns="http://www.w3.org/2000/svg" height="511pt" version="1.1" viewBox="1 -44 511.99899 511" width="511pt">
<g id="surface1">
<path d="M 507.335938 281.621094 C 490.871094 258.664062 459.757812 251.554688 434.953125 265.082031 L 351.71875 310.484375 C 348.285156 296.800781 335.886719 286.636719 321.152344 286.636719 L 253.144531 286.636719 C 249.132812 278.535156 240.773438 263.105469 232.566406 257.042969 C 184.03125 213.160156 99.667969 252.378906 86.273438 259.046875 L 57.527344 259.046875 L 57.527344 239.589844 L 0 239.589844 L 0 254.597656 L 42.519531 254.597656 L 42.519531 369.652344 L 0 369.652344 L 0 384.660156 L 57.527344 384.660156 L 57.527344 365.203125 L 106.40625 365.203125 L 293.539062 424.394531 L 512 288.125 Z M 291.46875 408 L 109.828125 350.546875 L 108.722656 350.195312 L 57.527344 350.195312 L 57.527344 274.050781 L 89.917969 274.050781 L 91.550781 273.195312 C 92.417969 272.742188 178.808594 228.195312 222.769531 268.414062 L 223.132812 268.746094 L 223.535156 269.03125 C 228.710938 272.644531 237.210938 287.71875 241.597656 297.269531 L 243.605469 301.640625 L 321.152344 301.640625 C 330.253906 301.640625 337.660156 309.046875 337.660156 318.148438 C 337.660156 327.253906 330.253906 334.65625 321.152344 334.65625 L 219.105469 334.65625 L 219.105469 349.664062 L 321.152344 349.664062 C 335.125 349.664062 346.996094 340.523438 351.113281 327.910156 L 442.140625 278.257812 C 457.886719 269.671875 477.109375 272.441406 489.800781 284.289062 Z M 291.46875 408 " style=" stroke:none;fill-rule:nonzero;fill:rgb(0%,0%,0%);fill-opacity:1;" />
<path d="M 118.554688 175.582031 L 148.167969 175.582031 C 151.777344 198.234375 171.441406 215.601562 195.09375 215.601562 C 218.742188 215.601562 238.40625 198.234375 242.015625 175.582031 L 338.257812 175.582031 C 341.867188 198.234375 361.53125 215.601562 385.183594 215.601562 C 408.832031 215.601562 428.496094 198.234375 432.105469 175.582031 L 473.726562 175.582031 L 473.726562 108.050781 C 473.726562 87.363281 456.894531 70.53125 436.207031 70.53125 L 381.125 70.53125 L 351.113281 0.5 L 190.433594 0.5 L 170.425781 70.53125 L 156.074219 70.53125 C 135.386719 70.53125 118.554688 87.363281 118.554688 108.050781 Z M 195.09375 200.59375 C 177.164062 200.59375 162.578125 186.007812 162.578125 168.078125 C 162.578125 150.148438 177.164062 135.5625 195.09375 135.5625 C 213.023438 135.5625 227.609375 150.148438 227.609375 168.078125 C 227.609375 186.007812 213.023438 200.59375 195.09375 200.59375 Z M 385.183594 200.59375 C 367.253906 200.59375 352.667969 186.007812 352.667969 168.078125 C 352.667969 150.148438 367.253906 135.5625 385.183594 135.5625 C 403.113281 135.5625 417.699219 150.148438 417.699219 168.078125 C 417.699219 186.007812 403.113281 200.59375 385.183594 200.59375 Z M 247.617188 15.507812 L 341.21875 15.507812 L 364.800781 70.53125 L 247.617188 70.53125 Z M 201.753906 15.507812 L 232.609375 15.507812 L 232.609375 70.53125 L 186.03125 70.53125 Z M 133.5625 108.050781 C 133.5625 95.636719 143.664062 85.539062 156.074219 85.539062 L 436.207031 85.539062 C 448.617188 85.539062 458.71875 95.636719 458.71875 108.050781 L 458.71875 160.574219 L 432.105469 160.574219 C 428.5 137.925781 408.832031 120.554688 385.183594 120.554688 C 361.53125 120.554688 341.867188 137.925781 338.257812 160.574219 L 242.019531 160.574219 C 238.410156 137.925781 218.742188 120.554688 195.09375 120.554688 C 171.445312 120.554688 151.777344 137.925781 148.167969 160.574219 L 133.5625 160.574219 Z M 133.5625 108.050781 " style=" stroke:none;fill-rule:nonzero;fill:rgb(0%,0%,0%);fill-opacity:1;" />
<path d="M 112.054688 35.515625 L 127.058594 35.515625 L 127.058594 50.523438 L 112.054688 50.523438 Z M 112.054688 35.515625 " style=" stroke:none;fill-rule:nonzero;fill:rgb(0%,0%,0%);fill-opacity:1;" />
<path d="M 52.023438 35.515625 L 67.03125 35.515625 L 67.03125 50.523438 L 52.023438 50.523438 Z M 52.023438 35.515625 " style=" stroke:none;fill-rule:nonzero;fill:rgb(0%,0%,0%);fill-opacity:1;" />
<path d="M 82.039062 35.515625 L 97.046875 35.515625 L 97.046875 50.523438 L 82.039062 50.523438 Z M 82.039062 35.515625 " style=" stroke:none;fill-rule:nonzero;fill:rgb(0%,0%,0%);fill-opacity:1;" />
<path d="M 81.539062 75.535156 L 96.546875 75.535156 L 96.546875 90.542969 L 81.539062 90.542969 Z M 81.539062 75.535156 " style=" stroke:none;fill-rule:nonzero;fill:rgb(0%,0%,0%);fill-opacity:1;" />
<path d="M 51.523438 75.535156 L 66.53125 75.535156 L 66.53125 90.542969 L 51.523438 90.542969 Z M 51.523438 75.535156 " style=" stroke:none;fill-rule:nonzero;fill:rgb(0%,0%,0%);fill-opacity:1;" />
<path d="M 21.511719 75.535156 L 36.515625 75.535156 L 36.515625 90.542969 L 21.511719 90.542969 Z M 21.511719 75.535156 " style=" stroke:none;fill-rule:nonzero;fill:rgb(0%,0%,0%);fill-opacity:1;" />
<path d="M 141.867188 270.769531 L 145.359375 285.363281 C 161.152344 281.585938 175.015625 280.675781 185.664062 282.738281 L 188.511719 268.003906 C 175.703125 265.523438 159.804688 266.476562 141.867188 270.769531 Z M 141.867188 270.769531 " style=" stroke:none;fill-rule:nonzero;fill:rgb(0%,0%,0%);fill-opacity:1;" />
<path d="M 112.25 280.277344 L 117.859375 294.199219 C 122.285156 292.417969 126.867188 290.761719 131.46875 289.277344 L 126.867188 274.992188 C 121.925781 276.585938 117.007812 278.363281 112.25 280.277344 Z M 112.25 280.277344 " style=" stroke:none;fill-rule:nonzero;fill:rgb(0%,0%,0%);fill-opacity:1;" />
<path d="M 278.132812 100.546875 L 318.152344 100.546875 L 318.152344 115.554688 L 278.132812 115.554688 Z M 278.132812 100.546875 " style=" stroke:none;fill-rule:nonzero;fill:rgb(0%,0%,0%);fill-opacity:1;" />
<path d="M 248.117188 100.546875 L 263.125 100.546875 L 263.125 115.554688 L 248.117188 115.554688 Z M 248.117188 100.546875 " style=" stroke:none;fill-rule:nonzero;fill:rgb(0%,0%,0%);fill-opacity:1;" />
<path d="M 377.679688 160.574219 L 392.6875 160.574219 L 392.6875 175.582031 L 377.679688 175.582031 Z M 377.679688 160.574219 " style=" stroke:none;fill-rule:nonzero;fill:rgb(0%,0%,0%);fill-opacity:1;" />
<path d="M 187.589844 160.574219 L 202.597656 160.574219 L 202.597656 175.582031 L 187.589844 175.582031 Z M 187.589844 160.574219 " style=" stroke:none;fill-rule:nonzero;fill:rgb(0%,0%,0%);fill-opacity:1;" />
</g>
</svg>