<svg height="512pt" viewBox="0 0 512 512" width="512pt" xmlns="http://www.w3.org/2000/svg"><path d="m377.707031 353.003906-49.710937 37.285156c1.300781-4.203124 2.003906-8.664062 2.003906-13.289062 0-24.8125-20.1875-45-45-45h-41.832031c-8.914063 0-17.546875-2.613281-24.964844-7.558594l-59.765625-39.84375c-12.363281-8.242187-26.75-12.597656-41.605469-12.597656-34.042969 0-67.925781 0-101.832031 0-8.285156 0-15 6.714844-15 15v150c0 8.285156 6.714844 15 15 15h56.460938l104.160156 52.082031c10.363281 5.179688 21.960937 7.917969 33.542968 7.917969h81.539063c16.121094 0 32.105469-5.328125 45-15l96-72c19.847656-14.886719 23.886719-43.148438 9-62.996094-14.925781-19.902344-43.097656-23.921875-62.996094-9zm-317.707031 68.996094h-30v-120h30zm353.703125-21-96 72c-7.738281 5.804688-17.328125 9-27 9h-81.539063c-6.949218 0-13.90625-1.644531-20.125-4.75l-99.039062-49.519531v-125.730469h26.832031c8.914063 0 17.546875 2.613281 24.964844 7.558594l59.765625 39.84375c12.363281 8.242187 26.75 12.597656 41.605469 12.597656h41.832031c8.269531 0 15 6.730469 15 15s-6.730469 15-15 15h-90c-8.285156 0-15 6.714844-15 15s6.714844 15 15 15h135.714844c3.242187 0 6.402344-1.054688 9-3l55.992187-41.996094c6.632813-4.972656 16.019531-3.632812 20.996094 3 4.960937 6.617188 3.613281 16.035156-3 20.996094zm0 0"/><path d="m494.105469 99.109375 13.5-13.503906c5.859375-5.855469 5.859375-15.351563 0-21.210938-5.855469-5.859375-15.355469-5.859375-21.210938 0l-12.839843 12.835938-15.488282-46.460938c-6.132812-18.40625-23.289062-30.769531-42.6875-30.769531h-166.757812c-19.398438 0-36.554688 12.363281-42.6875 30.769531l-15.488282 46.460938-12.839843-12.835938c-5.855469-5.859375-15.351563-5.859375-21.210938 0s-5.859375 15.355469 0 21.210938l13.5 13.503906c-10.863281 8.21875-17.894531 21.25-17.894531 35.890625v60c0 19.554688 12.539062 36.226562 30 42.421875v17.578125c0 24.8125 20.1875 45 45 45s45-20.1875 45-45v-15h120v15c0 24.8125 20.1875 45 45 45s45-20.1875 45-45v-17.578125c17.460938-6.195313 30-22.867187 30-42.421875v-60c0-14.640625-7.03125-27.671875-17.894531-35.890625zm-245.484375-69.109375h166.757812c6.464844 0 12.183594 4.121094 14.226563 10.257812l16.582031 49.742188h-228.375l16.582031-49.742188c2.042969-6.136718 7.761719-10.257812 14.226563-10.257812zm-6.621094 225c0 8.269531-6.730469 15-15 15s-15-6.730469-15-15v-15h30zm195 15c-8.269531 0-15-6.730469-15-15v-15h30v15c0 8.269531-6.730469 15-15 15zm30-60h-75v-15c0-8.285156-6.714844-15-15-15s-15 6.714844-15 15v15h-60v-15c0-8.285156-6.714844-15-15-15s-15 6.714844-15 15v15h-75c-8.269531 0-15-6.730469-15-15v-15h45c8.285156 0 15-6.714844 15-15s-6.714844-15-15-15h-45v-15c0-8.269531 6.730469-15 15-15h269.898438c.035156 0 .066406.003906.097656.003906h.046875c8.25.023438 14.957031 6.738282 14.957031 14.996094v15h-45c-8.285156 0-15 6.714844-15 15s6.714844 15 15 15h45v15c0 8.269531-6.730469 15-15 15zm0 0"/></svg>