<svg height="471pt" viewBox="0 -27 471.98852 471" width="471pt" xmlns="http://www.w3.org/2000/svg"><path d="m63.988281 416.496094h48c4.417969 0 8-3.582032 8-8v-5.761719l54.0625 13.519531c.632813.160156 1.285157.242188 1.9375.242188h160c17.671875 0 32-14.328125 32-32 0-17.675782-14.328125-32-32-32h-36.449219c2.878907-4.84375 4.417969-10.367188 4.449219-16 0-17.675782-14.328125-32-32-32h-61.335937l-5.863282-4.402344c-17.09375-12.71875-40.507812-12.71875-57.601562 0l-5.863281 4.402344h-77.335938c-4.417969 0-8 3.578125-8 8v96c0 4.417968 3.582031 8 8 8zm56-96h24c1.730469 0 3.414063-.5625 4.800781-1.601563l8-6c11.398438-8.472656 27-8.472656 38.398438 0l8 6c1.386719 1.039063 3.070312 1.601563 4.800781 1.601563h64c8.835938 0 16 7.160156 16 16 0 8.835937-7.164062 16-16 16h-24v16h88c8.835938 0 16 7.160156 16 16 0 8.835937-7.164062 16-16 16h-159.015625l-56.984375-14.25zm-48 0h32v80h-32zm0 0"/><path d="m103.988281 208.496094h16v16h-16zm0 0"/><path d="m135.988281 208.496094h16v16h-16zm0 0"/><path d="m39.988281 208.496094h16v16h-16zm0 0"/><path d="m7.988281 208.496094h16v16h-16zm0 0"/><path d="m71.988281 208.496094h16v16h-16zm0 0"/><path d="m167.988281 208.496094h16v16h-16zm0 0"/><path d="m199.988281 208.496094h16v16h-16zm0 0"/><path d="m231.988281 272.496094h16v16h-16zm0 0"/><path d="m463.988281 200.496094v-32h-16v32c0 4.417968-3.582031 8-8 8h-184c-13.253906 0-24 10.742187-24 24v24h16v-24c0-4.421875 3.582031-8 8-8h184c13.253907 0 24-10.746094 24-24zm0 0"/><path d="m7.988281 160.496094h48.207031c7.46875 10.0625 19.261719 16 31.792969 16s24.324219-5.9375 31.792969-16h224.207031v-.25c7.460938 10.214844 19.351563 16.25 32 16.25 12.648438 0 24.539063-6.035156 32-16.25v.25h8c.859375-.003906 1.714844-.144532 2.527344-.417969l48-16c3.265625-1.085937 5.46875-4.140625 5.472656-7.582031v-48c0-13.257813-10.746093-24-24-24h-13.785156l-37.597656-22.539063-14.121094-11.796875c-2.097656-1.753906-4.296875-3.347656-6.496094-4.953125v-.710937h-.945312c-21.726563-15.570313-47.773438-23.960938-74.503907-24h-42.453124c-29.074219.023437-57.277344 9.914062-80 28.046875l-44.90625 35.953125h-69.191407c-30.738281.046875-57.109375 21.914062-62.847656 52.109375-1.15625 1.589843-1.453125 3.644531-.800781 5.496093-.207032 2.105469-.3203128 4.234376-.3203128 6.402344v24c.0039063 4.402344 3.5664068 7.972656 7.9687498 7.992188zm80 0c-13.253906 0-24-10.746094-24-24 0-13.257813 10.746094-24 24-24 13.253907 0 24 10.742187 24 24 0 13.253906-10.746093 24-24 24zm288-114.914063 10.871094 9.0625c.320313.257813.65625.496094 1.007813.707031l15.242187 9.144532h-27.121094zm0 34.914063h72c4.417969 0 8 3.578125 8 8v8h-16c-4.417969 0-8 3.578125-8 8 0 4.417968 3.582031 8 8 8h16v18.230468l-40.800781 13.601563c2.375-11.75-.652344-23.945313-8.25-33.21875-7.597656-9.269531-18.960938-14.636719-30.949219-14.613281zm0 32c13.253907 0 24 10.742187 24 24 0 13.253906-10.746093 24-24 24-13.253906 0-24-10.746094-24-24 0-13.257813 10.746094-24 24-24zm-64-95.355469c17.054688 1.785156 33.472657 7.449219 48 16.5625v30.792969h-48zm-32-.644531h16v48h-16zm-8 64h88v18.167968c-18.957031 7.382813-31.570312 25.488282-31.929687 45.832032h-56.070313zm-83.863281-39.457032c19.871094-15.863281 44.535156-24.515624 69.960938-24.542968h5.902343v48h-105.183593zm-36.136719 39.457032h104v64h-91.71875l-12.28125-18.402344zm-136 48h16c4.417969 0 8-3.582032 8-8 0-4.421875-3.582031-8-8-8h-13.199219c6.773438-19.160156 24.878907-31.980469 45.199219-32h72v48c.003907 1.578125.46875 3.121094 1.34375 4.4375l7.710938 11.5625h-17.855469c3.226562-15.894532-3.460938-32.164063-16.933594-41.191406-13.46875-9.027344-31.058594-9.027344-44.53125 0-13.472656 9.027343-20.160156 25.296874-16.933594 41.191406h-32.800781zm0 0"/><path d="m103.988281 136.496094c0 8.835937-7.164062 16-16 16-8.835937 0-16-7.164063-16-16 0-8.839844 7.164063-16 16-16 8.835938 0 16 7.160156 16 16zm0 0"/><path d="m391.988281 136.496094c0 8.835937-7.164062 16-16 16-8.835937 0-16-7.164063-16-16 0-8.839844 7.164063-16 16-16 8.835938 0 16 7.160156 16 16zm0 0"/><path d="m175.988281 96.496094h32v16h-32zm0 0"/><path d="m287.988281 96.496094h32v16h-32zm0 0"/></svg>