<svg xmlns="http://www.w3.org/2000/svg" height="935pt" version="1.1" viewBox="0 -70 935.00065 935" width="935pt">
<g id="surface1">
<path d="M 763.582031 701.234375 L 794.75 701.234375 L 794.75 732.402344 L 763.582031 732.402344 Z M 763.582031 701.234375 " style=" stroke:none;fill-rule:nonzero;fill:rgb(0%,0%,0%);fill-opacity:1;" />
<path d="M 202.585938 296.070312 C 176.765625 296.070312 155.835938 317.003906 155.835938 342.820312 C 155.835938 368.636719 176.765625 389.566406 202.585938 389.566406 C 228.398438 389.566406 249.332031 368.636719 249.332031 342.820312 C 249.332031 317.003906 228.398438 296.070312 202.585938 296.070312 Z M 202.585938 358.40625 C 193.976562 358.40625 186.996094 351.425781 186.996094 342.820312 C 186.996094 334.210938 193.976562 327.234375 202.585938 327.234375 C 211.191406 327.234375 218.171875 334.210938 218.171875 342.820312 C 218.171875 351.425781 211.191406 358.40625 202.585938 358.40625 Z M 202.585938 358.40625 " style=" stroke:none;fill-rule:nonzero;fill:rgb(0%,0%,0%);fill-opacity:1;" />
<path d="M 732.414062 296.070312 C 706.601562 296.070312 685.671875 317.003906 685.671875 342.820312 C 685.671875 368.636719 706.601562 389.566406 732.414062 389.566406 C 758.234375 389.566406 779.164062 368.636719 779.164062 342.820312 C 779.164062 317.003906 758.234375 296.070312 732.414062 296.070312 Z M 732.414062 358.40625 C 723.8125 358.40625 716.832031 351.425781 716.832031 342.820312 C 716.832031 334.210938 723.8125 327.234375 732.414062 327.234375 C 741.023438 327.234375 748 334.210938 748 342.820312 C 748 351.425781 741.023438 358.40625 732.414062 358.40625 Z M 732.414062 358.40625 " style=" stroke:none;fill-rule:nonzero;fill:rgb(0%,0%,0%);fill-opacity:1;" />
<path d="M 923.703125 109.675781 L 816.726562 79.101562 L 813.609375 77.128906 C 811.628906 75.890625 809.617188 74.753906 807.609375 73.632812 L 803.976562 71.558594 C 632.597656 -30.707031 417.132812 -22.8125 253.691406 91.726562 L 227.90625 109.769531 L 120.476562 125.125 C 79.128906 131.171875 42.628906 155.304688 20.847656 190.957031 C 19.871094 191.9375 19.035156 193.050781 18.335938 194.25 C 11.386719 206.699219 6.355469 220.144531 3.449219 234.105469 C 2.917969 236.511719 2.429688 238.890625 2.023438 241.332031 C 1.621094 243.753906 1.292969 246 1.027344 248.398438 C 0.546875 252.78125 0.238281 257.199219 0.175781 261.691406 C 0.175781 262.238281 0.0585938 262.773438 0.0585938 263.246094 L 0.0585938 342.820312 C 0.0585938 351.425781 7.039062 358.40625 15.648438 358.40625 L 94.75 358.40625 C 98.152344 382.09375 109.265625 404.003906 126.382812 420.730469 L 15.585938 420.730469 C 6.980469 420.730469 0 427.710938 0 436.316406 C 0.09375 498.128906 40.578125 552.609375 99.730469 570.542969 C 85.855469 583.082031 77.925781 600.917969 77.921875 619.628906 L 77.921875 623.003906 C 77.816406 648.238281 92.082031 671.324219 114.675781 682.539062 L 296.378906 773.371094 C 324.523438 787.394531 355.539062 794.703125 386.980469 794.730469 L 919.414062 794.730469 C 928.019531 794.730469 935 787.761719 935 779.15625 L 935 560.984375 C 935 552.382812 928.019531 545.402344 919.414062 545.402344 L 882.703125 545.402344 C 915.753906 518.839844 934.996094 478.726562 935 436.316406 C 935 427.710938 928.019531 420.730469 919.414062 420.730469 L 808.617188 420.730469 C 825.734375 404.003906 836.847656 382.09375 840.25 358.40625 L 857.085938 358.40625 C 861.816406 358.40625 866.300781 356.253906 869.25 352.558594 L 931.582031 274.640625 C 933.800781 271.875 935 268.4375 935 264.902344 L 935 124.652344 C 935 117.695312 930.390625 111.585938 923.703125 109.675781 Z M 727.941406 109.066406 L 545.421875 109.066406 L 545.421875 31.152344 C 622.050781 31.359375 697.507812 50.066406 765.355469 85.691406 Z M 514.25 32.242188 L 514.25 109.066406 L 283.621094 109.066406 C 352.488281 63.808594 431.992188 37.328125 514.25 32.242188 Z M 32.730469 246.332031 C 33.203125 243.3125 33.890625 240.304688 34.628906 237.34375 C 35.488281 233.859375 36.53125 230.410156 37.742188 227.019531 C 38.070312 226.074219 38.441406 225.121094 38.808594 224.175781 C 39.703125 221.925781 40.652344 219.695312 41.703125 217.496094 L 77.921875 217.496094 L 54.539062 248.769531 L 32.382812 249.082031 C 32.433594 248.167969 32.535156 247.246094 32.730469 246.332031 Z M 31.164062 280.265625 L 62.554688 279.832031 C 67.378906 279.757812 71.910156 277.460938 74.792969 273.597656 L 121.542969 211.269531 C 125.09375 206.542969 125.660156 200.222656 123.027344 194.945312 C 120.382812 189.664062 114.988281 186.328125 109.085938 186.328125 L 63.894531 186.328125 C 80.425781 169.9375 101.792969 159.289062 124.839844 155.949219 L 234.859375 140.234375 L 514.25 140.234375 L 514.25 327.234375 L 310.5625 327.234375 C 310.386719 326.035156 310.089844 324.886719 309.871094 323.695312 C 309.617188 322.222656 309.359375 320.722656 309.035156 319.261719 C 308.601562 317.300781 308.066406 315.363281 307.476562 313.445312 C 307.085938 312.054688 306.730469 310.65625 306.269531 309.300781 C 305.632812 307.304688 304.871094 305.359375 304.128906 303.40625 C 303.640625 302.179688 303.222656 300.929688 302.691406 299.730469 C 301.753906 297.550781 300.691406 295.441406 299.578125 293.347656 C 299.105469 292.441406 298.699219 291.492188 298.21875 290.601562 C 296.660156 287.671875 294.867188 284.804688 292.992188 282.03125 C 292.527344 281.34375 291.992188 280.707031 291.441406 280.03125 C 289.992188 277.960938 288.507812 275.921875 286.917969 273.972656 C 286.105469 272.992188 285.242188 272.066406 284.394531 271.117188 C 283.023438 269.558594 281.660156 268.003906 280.203125 266.449219 C 279.238281 265.449219 278.210938 264.515625 277.199219 263.5625 C 275.757812 262.226562 274.324219 260.886719 272.828125 259.609375 C 271.746094 258.667969 270.609375 257.796875 269.464844 256.914062 C 267.90625 255.726562 266.433594 254.570312 264.792969 253.46875 C 263.59375 252.625 262.378906 251.820312 261.128906 251.011719 C 259.574219 249.988281 257.902344 249.007812 256.253906 248.050781 C 254.972656 247.320312 253.660156 246.609375 252.355469 245.925781 C 250.660156 245.050781 248.914062 244.222656 247.164062 243.429688 C 245.824219 242.824219 244.488281 242.214844 243.128906 241.671875 C 241.292969 240.917969 239.417969 240.261719 237.554688 239.613281 C 236.179688 239.160156 234.839844 238.65625 233.453125 238.253906 C 231.457031 237.664062 229.433594 237.179688 227.410156 236.695312 C 226.066406 236.382812 224.753906 236.023438 223.398438 235.753906 C 221.125 235.3125 218.726562 234.996094 216.46875 234.703125 C 215.3125 234.550781 214.179688 234.324219 213.007812 234.222656 C 209.75 233.941406 206.179688 233.734375 202.585938 233.734375 C 198.984375 233.734375 195.414062 233.941406 191.90625 234.28125 C 190.742188 234.382812 189.605469 234.613281 188.449219 234.765625 C 186.109375 235.058594 183.777344 235.375 181.515625 235.828125 C 180.15625 236.085938 178.847656 236.441406 177.507812 236.753906 C 175.488281 237.242188 173.460938 237.726562 171.460938 238.316406 C 170.078125 238.714844 168.738281 239.222656 167.367188 239.671875 C 165.5 240.324219 163.625 240.976562 161.78125 241.730469 C 160.429688 242.273438 159.09375 242.882812 157.753906 243.492188 C 156.011719 244.292969 154.253906 245.050781 152.5625 245.988281 C 151.253906 246.671875 149.941406 247.382812 148.664062 248.117188 C 147.015625 249.070312 145.375 250.050781 143.785156 251.085938 C 142.539062 251.875 141.320312 252.632812 140.128906 253.53125 C 138.566406 254.636719 137.007812 255.789062 135.449219 256.972656 C 134.320312 257.855469 133.171875 258.730469 132.089844 259.667969 C 130.527344 260.945312 129.15625 262.285156 127.71875 263.628906 C 126.703125 264.574219 125.679688 265.503906 124.714844 266.503906 C 123.269531 267.992188 121.890625 269.542969 120.523438 271.179688 C 119.679688 272.128906 118.8125 273.050781 117.992188 274.03125 C 116.441406 275.984375 114.878906 278.027344 113.480469 280.09375 C 112.992188 280.765625 112.464844 281.402344 111.996094 282.089844 C 110.125 284.871094 108.398438 287.730469 106.777344 290.660156 C 106.289062 291.550781 105.886719 292.5 105.421875 293.40625 C 104.34375 295.503906 103.285156 297.613281 102.304688 299.796875 C 101.769531 300.992188 101.355469 302.238281 100.875 303.472656 C 100.121094 305.417969 99.316406 307.367188 98.71875 309.359375 C 98.277344 310.714844 97.914062 312.125 97.519531 313.503906 C 96.992188 315.425781 96.460938 317.363281 95.964844 319.324219 C 95.636719 320.78125 95.386719 322.28125 95.121094 323.757812 C 94.898438 324.941406 94.601562 326.097656 94.4375 327.292969 L 31.164062 327.292969 Z M 624.585938 358.40625 C 627.980469 382.09375 639.101562 404.003906 656.21875 420.730469 L 278.792969 420.730469 C 295.898438 404.003906 307.019531 382.09375 310.417969 358.40625 Z M 124.671875 342.820312 C 124.671875 299.792969 159.558594 264.902344 202.585938 264.902344 C 245.613281 264.902344 280.5 299.792969 280.5 342.820312 C 280.5 385.855469 245.613281 420.730469 202.585938 420.730469 C 159.566406 420.683594 124.71875 385.835938 124.671875 342.820312 Z M 313.835938 624.0625 L 210.140625 576.566406 L 320.332031 576.566406 C 311.789062 590.859375 309.4375 608.007812 313.835938 624.0625 Z M 310.328125 745.453125 L 128.621094 654.632812 C 116.617188 648.679688 109.03125 636.414062 109.085938 623.003906 L 109.085938 619.628906 C 109.046875 607.578125 115.164062 596.347656 125.292969 589.828125 C 135.429688 583.320312 148.195312 582.4375 159.132812 587.476562 L 336.332031 668.640625 C 338.371094 669.574219 340.589844 670.070312 342.832031 670.070312 L 498.664062 670.070312 C 507.269531 670.070312 514.25 663.089844 514.25 654.484375 C 514.25 645.882812 507.269531 638.902344 498.664062 638.902344 L 374 638.902344 C 356.789062 638.902344 342.832031 624.945312 342.832031 607.734375 C 342.832031 590.527344 356.789062 576.566406 374 576.566406 L 493.476562 576.566406 C 496.078125 576.566406 498.644531 575.914062 500.925781 574.664062 L 504.914062 572.503906 C 565.863281 538.953125 639.542969 538.105469 701.253906 570.246094 L 701.253906 763.570312 L 386.980469 763.570312 C 360.371094 763.546875 334.132812 757.347656 310.328125 745.453125 Z M 903.835938 576.566406 L 903.835938 763.570312 L 732.414062 763.570312 L 732.414062 576.566406 Z M 902.734375 451.902344 C 894.910156 505.539062 848.949219 545.332031 794.75 545.402344 L 720.679688 545.402344 C 648.945312 505.742188 561.882812 505.636719 490.046875 545.125 L 374 545.402344 L 140.25 545.402344 C 86.050781 545.332031 40.089844 505.539062 32.273438 451.902344 Z M 732.414062 420.730469 C 689.386719 420.730469 654.496094 385.855469 654.496094 342.820312 C 654.496094 299.792969 689.386719 264.902344 732.414062 264.902344 C 775.445312 264.902344 810.332031 299.792969 810.332031 342.820312 C 810.28125 385.835938 775.433594 420.683594 732.414062 420.730469 Z M 849.601562 327.234375 L 840.398438 327.234375 C 840.222656 326.035156 839.925781 324.886719 839.707031 323.695312 C 839.445312 322.222656 839.191406 320.722656 838.871094 319.261719 C 838.433594 317.300781 837.902344 315.363281 837.304688 313.445312 C 836.921875 312.054688 836.5625 310.65625 836.105469 309.300781 C 835.464844 307.304688 834.707031 305.359375 833.960938 303.40625 C 833.476562 302.179688 833.050781 300.929688 832.523438 299.730469 C 831.589844 297.550781 830.523438 295.441406 829.414062 293.347656 C 828.933594 292.441406 828.535156 291.492188 828.050781 290.601562 C 826.496094 287.671875 824.695312 284.804688 822.828125 282.03125 C 822.363281 281.34375 821.828125 280.707031 821.355469 280.03125 C 819.902344 277.960938 818.421875 275.921875 816.828125 273.972656 C 816.023438 272.992188 815.148438 272.066406 814.304688 271.117188 C 812.933594 269.558594 811.570312 268.003906 810.109375 266.449219 C 809.148438 265.449219 808.121094 264.515625 807.109375 263.5625 C 805.675781 262.226562 804.242188 260.886719 802.75 259.609375 C 801.652344 258.667969 800.519531 257.796875 799.375 256.914062 C 797.8125 255.726562 796.261719 254.570312 794.703125 253.46875 C 793.5 252.625 792.289062 251.820312 791.042969 251.011719 C 789.480469 249.988281 787.820312 249.007812 786.164062 248.050781 C 784.890625 247.320312 783.578125 246.609375 782.273438 245.925781 C 780.566406 245.050781 778.824219 244.222656 777.082031 243.429688 C 775.738281 242.824219 774.398438 242.214844 773.039062 241.671875 C 771.199219 240.917969 769.335938 240.261719 767.46875 239.613281 C 766.097656 239.160156 764.757812 238.65625 763.359375 238.253906 C 761.371094 237.664062 759.339844 237.179688 757.320312 236.695312 C 755.980469 236.382812 754.671875 236.023438 753.3125 235.753906 C 751.035156 235.3125 748.71875 234.996094 746.382812 234.703125 C 745.226562 234.550781 744.089844 234.324219 742.917969 234.222656 C 739.585938 233.941406 736.015625 233.734375 732.414062 233.734375 C 728.816406 233.734375 725.25 233.941406 721.742188 234.28125 C 720.578125 234.382812 719.441406 234.613281 718.277344 234.765625 C 715.941406 235.058594 713.609375 235.375 711.34375 235.828125 C 709.992188 236.085938 708.683594 236.441406 707.34375 236.753906 C 705.324219 237.242188 703.289062 237.726562 701.292969 238.316406 C 699.914062 238.714844 698.574219 239.222656 697.203125 239.671875 C 695.332031 240.324219 693.457031 240.976562 691.617188 241.730469 C 690.261719 242.273438 688.925781 242.882812 687.585938 243.492188 C 685.847656 244.292969 684.089844 245.050781 682.398438 245.988281 C 681.089844 246.671875 679.777344 247.382812 678.5 248.117188 C 676.851562 249.070312 675.210938 250.050781 673.621094 251.085938 C 672.375 251.875 671.152344 252.632812 669.957031 253.53125 C 668.402344 254.636719 666.839844 255.789062 665.285156 256.972656 C 664.148438 257.855469 663.007812 258.730469 661.917969 259.667969 C 660.359375 260.945312 658.992188 262.285156 657.550781 263.628906 C 656.539062 264.574219 655.515625 265.503906 654.542969 266.503906 C 653.105469 267.992188 651.71875 269.542969 650.355469 271.179688 C 649.515625 272.128906 648.636719 273.050781 647.828125 274.03125 C 646.277344 275.984375 644.714844 278.027344 643.316406 280.09375 C 642.828125 280.765625 642.289062 281.402344 641.828125 282.089844 C 639.960938 284.871094 638.234375 287.730469 636.609375 290.660156 C 636.125 291.550781 635.71875 292.5 635.257812 293.40625 C 634.175781 295.503906 633.121094 297.613281 632.140625 299.796875 C 631.601562 300.992188 631.183594 302.238281 630.710938 303.472656 C 629.953125 305.417969 629.148438 307.367188 628.554688 309.359375 C 628.101562 310.714844 627.75 312.125 627.355469 313.503906 C 626.828125 315.425781 626.292969 317.363281 625.796875 319.324219 C 625.472656 320.78125 625.222656 322.28125 624.953125 323.757812 C 624.734375 324.941406 624.4375 326.097656 624.273438 327.292969 L 545.421875 327.292969 L 545.421875 140.234375 L 732.414062 140.234375 C 735.34375 140.234375 738.195312 139.410156 740.675781 137.863281 L 796.3125 103.105469 L 797.023438 103.554688 L 802.078125 106.671875 C 803.3125 107.441406 804.648438 108.035156 806.046875 108.425781 L 903.835938 136.398438 L 903.835938 171.402344 L 841.5 171.402344 L 841.5 202.570312 L 903.835938 202.570312 L 903.835938 259.429688 Z M 849.601562 327.234375 " style=" stroke:none;fill-rule:nonzero;fill:rgb(0%,0%,0%);fill-opacity:1;" />
<path d="M 420.75 171.402344 L 483.085938 171.402344 L 483.085938 202.570312 L 420.75 202.570312 Z M 420.75 171.402344 " style=" stroke:none;fill-rule:nonzero;fill:rgb(0%,0%,0%);fill-opacity:1;" />
</g>
</svg>