<svg height="496pt" viewBox="0 0 496 496" width="496pt" xmlns="http://www.w3.org/2000/svg"><path d="m392 416c-13.230469 0-24 10.769531-24 24s10.769531 24 24 24 24-10.769531 24-24-10.769531-24-24-24zm0 32c-4.414062 0-8-3.585938-8-8s3.585938-8 8-8 8 3.585938 8 8-3.585938 8-8 8zm0 0"/><path d="m200 416c-13.230469 0-24 10.769531-24 24s10.769531 24 24 24 24-10.769531 24-24-10.769531-24-24-24zm0 32c-4.414062 0-8-3.585938-8-8s3.585938-8 8-8 8 3.585938 8 8-3.585938 8-8 8zm0 0"/><path d="m474.855469 287.585938-26.457031-26.480469c-13.589844-13.609375-31.679688-21.105469-50.917969-21.105469h-61.480469v-240h-251.3125l-84.6875 84.6875v347.3125h97.472656c3.3125 9.289062 12.113282 16 22.527344 16h24.640625c3.902344 27.089844 27.207031 48 55.359375 48s51.457031-20.910156 55.359375-48h81.28125c3.902344 27.089844 27.207031 48 55.359375 48s51.457031-20.910156 55.359375-48h24.519531c13.21875 0 23.992188-10.761719 24-23.984375l.050782-85.503906c.007812-19.230469-7.472657-37.328125-21.074219-50.925781zm5.074219 50.917968v4.335938c-13.730469-3.601563-23.929688-16-23.929688-30.839844 0-5.792969 1.640625-11.289062 4.503906-16.152344l3.039063 3.046875c10.578125 10.585938 16.394531 24.648438 16.386719 39.609375zm-42.832032-66.078125 11.796875 11.804688c-5.75 8.058593-8.894531 17.664062-8.894531 27.769531 0 23.710938 17.296875 43.40625 39.921875 47.265625l-.027344 40.734375h-48.78125c-2.203125-2.152344-4.585937-4.121094-7.113281-5.886719v-90.113281c0-17.648438-14.351562-32-32-32h-109.265625c-14.277344 0-27.71875 6.296875-36.871094 17.265625l-29.863281 35.839844v61.253906c-5.070312-1.519531-10.441406-2.359375-16-2.359375-15.214844 0-29.007812 6.121094-39.113281 16h-48.886719v-30.328125c0-11.335937 7.726562-20.96875 18.792969-23.433594l49.695312-11.046875 46.535157-58.175781c10.695312-13.359375 26.632812-21.015625 43.738281-21.015625h126.71875c14.960937 0 29.023437 5.832031 39.617187 16.425781zm-29.097656 47.574219h-88v-32h72c8.824219 0 16 7.175781 16 16zm-104 0h-62.921875l17.066406-20.488281c6.101563-7.320313 15.0625-11.511719 24.589844-11.511719h21.265625zm-72 16h72v16h-32v16h32v32h-64.886719c-2.203125-2.152344-4.585937-4.121094-7.113281-5.886719zm18.519531 80h90.960938c-2.375 4.976562-4.023438 10.351562-4.839844 16h-81.28125c-.816406-5.648438-2.464844-11.023438-4.839844-16zm102.367188-16h-32.886719v-64h88v16h-32v16h32v18.359375c-5.070312-1.519531-10.441406-2.359375-16-2.359375-15.214844 0-29.007812 6.121094-39.113281 16zm-272.886719-372.6875v52.6875h-52.6875zm-64 68.6875h80v-80h224v224h-49.238281c-21.992188 0-42.488281 9.847656-56.226563 27.015625l-43.015625 53.792969-44.191406 9.816406c-18.457031 4.101562-31.328125 20.160156-31.328125 39.046875v46.328125h-80zm96 328v-8h37.480469c-2.375 4.976562-4.023438 10.351562-4.839844 16h-24.640625c-4.414062 0-8-3.585938-8-8zm88 56c-22.054688 0-40-17.945312-40-40s17.945312-40 40-40 40 17.945312 40 40-17.945312 40-40 40zm192 0c-22.054688 0-40-17.945312-40-40s17.945312-40 40-40 40 17.945312 40 40-17.945312 40-40 40zm79.878906-48h-24.519531c-.816406-5.648438-2.464844-11.023438-4.839844-16h37.367188l-.007813 8c0 4.414062-3.589844 8-8 8zm0 0"/><path d="m304 32h-144v128h144zm-16 112h-112v-96h112zm0 0"/><path d="m32 112h112v16h-112zm0 0"/><path d="m32 144h112v16h-112zm0 0"/><path d="m32 176h272v16h-272zm0 0"/><path d="m288 208h16v16h-16zm0 0"/><path d="m32 208h240v16h-240zm0 0"/><path d="m96 312c0-13.230469-10.769531-24-24-24-4.414062 0-8-3.585938-8-8s3.585938-8 8-8 8 3.585938 8 8h16c0-10.414062-6.710938-19.214844-16-22.527344v-17.472656h-16v17.472656c-9.289062 3.3125-16 12.113282-16 22.527344 0 13.230469 10.769531 24 24 24 4.414062 0 8 3.585938 8 8s-3.585938 8-8 8-8-3.585938-8-8h-16c0 10.414062 6.710938 19.214844 16 22.527344v17.472656h16v-17.472656c9.289062-3.3125 16-12.113282 16-22.527344zm0 0"/></svg>