<?xml version="1.0" encoding="iso-8859-1"?>
<!-- Generator: Adobe Illustrator 16.0.0, SVG Export Plug-In . SVG Version: 6.00 Build 0)  -->
<!DOCTYPE svg PUBLIC "-//W3C//DTD SVG 1.1//EN" "http://www.w3.org/Graphics/SVG/1.1/DTD/svg11.dtd">
<svg version="1.1" id="Capa_1" xmlns="http://www.w3.org/2000/svg" xmlns:xlink="http://www.w3.org/1999/xlink" x="0px" y="0px"
	 width="71.251px" height="71.251px" viewBox="0 0 71.251 71.251" style="enable-background:new 0 0 71.251 71.251;"
	 xml:space="preserve">
<g>
	<path d="M71.24,49.179h-2.117v-7.93h-4.724l-6.524-11.258H31.05l-6.517,11.258H11.24v7.93H9.649v4.671h1.591v2.774h9.348
		c0.542,2.689,2.933,4.724,5.791,4.724c2.857,0,5.237-2.034,5.786-4.724h17.248c0.541,2.689,2.934,4.724,5.785,4.724
		c2.855,0,5.242-2.034,5.785-4.724h8.152V53.85h2.116v-4.671H71.24z M26.374,59.012c-1.97,0-3.571-1.599-3.571-3.556
		c0-1.969,1.607-3.567,3.571-3.567c1.964,0,3.562,1.601,3.562,3.567C29.936,57.413,28.338,59.012,26.374,59.012z M55.19,59.012
		c-1.966,0-3.565-1.599-3.565-3.556c0-1.969,1.602-3.567,3.565-3.567c1.962,0,3.561,1.601,3.561,3.567
		C58.751,57.413,57.159,59.012,55.19,59.012z M66.787,54.279h-5.81c-0.543-2.696-2.929-4.731-5.787-4.731s-5.242,2.035-5.787,4.731
		h-17.25c-0.54-2.696-2.93-4.731-5.784-4.731c-2.859,0-5.247,2.035-5.791,4.731h-7.012V43.585h12.31l6.517-11.258h24.138
		l6.52,11.258h3.736V54.279L66.787,54.279z M56.358,36.434l3.982,6.873h-3.982V36.434z M43.502,34.535h10.521v8.771H43.502V34.535z
		 M33.671,34.535h7.495v8.771H28.585L33.671,34.535z M24.807,9.903H0v28.24h24.807V9.903z M22.471,35.807H2.336V12.239h20.135
		V35.807z M8.307,27.053h11.865v2.336H8.307V27.053z M8.307,31.252h11.865v2.336H8.307V31.252z M6.111,29.389H4.538v-2.336h1.573
		V29.389z M6.111,33.588H4.538v-2.336h1.573V33.588z M10.203,24.441l-5.492-4.879l1.551-1.747l3.959,3.52l8.325-7.204l1.527,1.769
		L10.203,24.441z"/>
</g>
<g>
</g>
<g>
</g>
<g>
</g>
<g>
</g>
<g>
</g>
<g>
</g>
<g>
</g>
<g>
</g>
<g>
</g>
<g>
</g>
<g>
</g>
<g>
</g>
<g>
</g>
<g>
</g>
<g>
</g>
</svg>
